<svg xmlns="http://www.w3.org/2000/svg" xmlns:xlink="http://www.w3.org/1999/xlink" x="0" y="0" version="1.1" viewBox="0 0 92.8 92.8" xml:space="preserve" style="enable-background:new 0 0 92.8 92.8"><style type="text/css">.st0{fill:#7a7a7a}</style><path d="M46.4,0C20.8,0,0,20.8,0,46.4C0,72,20.8,92.8,46.4,92.8C72,92.8,92.8,72,92.8,46.4C92.8,20.8,72,0,46.4,0z M68.2,61.2c0,1.6-1.3,2.8-2.8,2.8H26c-1.6,0-2.8-1.3-2.8-2.8V38.1L45.7,55l22.5-16.9V61.2z M45.7,49.9L23.2,33	c0-1.6,1.3-2.8,2.8-2.8h39.4c1.6,0,2.8,1.3,2.8,2.8L45.7,49.9z" class="st0"/></svg>