<svg xmlns="http://www.w3.org/2000/svg" width="45" height="45" viewBox="0 0 45 45"><g fill="#444" class="nc-icon-wrapper"><title>bug</title><g fill="none" fill-rule="evenodd" stroke="#444" stroke-width="1"><path d="M28 9.4V6c0-3.3-2.7-6-6-6s-6 2.7-6 6v3.4" transform="translate(-140 -523) translate(140 523) translate(.5 .5)"/><path d="M8 22H6c-3.3 0-6-2.7-6-6v-2" transform="translate(-140 -523) translate(140 523) translate(.5 .5)"/><path d="M8 30H6c-3.3 0-6 2.7-6 6v2" transform="translate(-140 -523) translate(140 523) translate(.5 .5)"/><path d="M36 22h2c3.3 0 6-2.7 6-6v-2" transform="translate(-140 -523) translate(140 523) translate(.5 .5)"/><path d="M36 30h2c3.3 0 6 2.7 6 6v2" transform="translate(-140 -523) translate(140 523) translate(.5 .5)"/><path d="M36 30c0 7.7-6.3 14-14 14S8 37.7 8 30v-8c0-7.7 6.3-14 14-14s14 6.3 14 14v8z" transform="translate(-140 -523) translate(140 523) translate(.5 .5)"/></g></g></svg>