<svg xmlns="http://www.w3.org/2000/svg" width="45" height="45" viewBox="0 0 45 45"><g fill="#444" class="nc-icon-wrapper"><title>computer</title><g fill="none" fill-rule="evenodd" stroke="#444" stroke-width="1"><path d="M28 36v8" transform="translate(-140 -1066) translate(140 1066) translate(.5 .5)"/><path d="M16 44v-8" transform="translate(-140 -1066) translate(140 1066) translate(.5 .5)"/><path d="M10 44h24" transform="translate(-140 -1066) translate(140 1066) translate(.5 .5)"/><path d="M20 6h4" transform="translate(-140 -1066) translate(140 1066) translate(.5 .5)"/><path d="M40 36H4c-2.2 0-4-1.8-4-4V4c0-2.2 1.8-4 4-4h36c2.2 0 4 1.8 4 4v28c0 2.2-1.8 4-4 4z" transform="translate(-140 -1066) translate(140 1066) translate(.5 .5)"/><path d="M0 28h44" transform="translate(-140 -1066) translate(140 1066) translate(.5 .5)"/></g></g></svg>