<svg xmlns="http://www.w3.org/2000/svg" width="46" height="34" viewBox="0 0 46 34"><g fill="#444" class="nc-icon-wrapper"><title>default</title><g fill="none" fill-rule="evenodd" stroke="#444" stroke-width="1"><path d="M0 8h44" transform="translate(-139 -1136) translate(140 1137)"/><path d="M0 16h44" transform="translate(-139 -1136) translate(140 1137)"/><path d="M41 32H3c-1.7 0-3-1.3-3-3V3c0-1.7 1.3-3 3-3h38c1.7 0 3 1.3 3 3v26c0 1.7-1.3 3-3 3z" transform="translate(-139 -1136) translate(140 1137)"/><path d="M8 24h10" transform="translate(-139 -1136) translate(140 1137)"/><path d="M33 24h3" transform="translate(-139 -1136) translate(140 1137)"/></g></g></svg>