<svg xmlns="http://www.w3.org/2000/svg" width="45" height="45" viewBox="0 0 45 45"><g fill="#444" class="nc-icon-wrapper"><title>football</title><g fill="none" fill-rule="evenodd" stroke="#444" stroke-width="1" transform="translate(-140 -1335) translate(140 1335) translate(.5 .5)"><path d="M22 32H0v10c12.167 0 12-15.667 12-22"/><circle cx="30" cy="36" r="2"/><path d="M30 44a8 8 0 0 0 8-8v-2c0-4 6-6.25 6-10v-4C42.988 8.788 33.475 0 22 0S1.113 8.788.101 20H18a4 4 0 0 1 4 4v12a8 8 0 0 0 8 8z"/></g></g></svg>