<svg xmlns="http://www.w3.org/2000/svg" width="45" height="39" viewBox="0 0 45 39"><g fill="#444" class="nc-icon-wrapper"><title>game</title><g fill="none" fill-rule="evenodd" stroke="#444" stroke-width="1"><path d="M32 38H12C5.4 38 0 32.6 0 26s5.4-12 12-12h20c6.6 0 12 5.4 12 12s-5.4 12-12 12z" transform="translate(-140 -1531) translate(140 1531) translate(.5 .5)"/><path d="M12 22v8" transform="translate(-140 -1531) translate(140 1531) translate(.5 .5)"/><path d="M8 26h8" transform="translate(-140 -1531) translate(140 1531) translate(.5 .5)"/><path d="M30 24l2-2" transform="translate(-140 -1531) translate(140 1531) translate(.5 .5)"/><path d="M34 30l2-2" transform="translate(-140 -1531) translate(140 1531) translate(.5 .5)"/><path d="M22 6V0" transform="translate(-140 -1531) translate(140 1531) translate(.5 .5)"/></g></g></svg>