<svg xmlns="http://www.w3.org/2000/svg" width="45" height="45" viewBox="0 0 45 45"><g fill="#444" class="nc-icon-wrapper"><title>medical</title><g fill="none" fill-rule="evenodd" stroke="#444" stroke-width="1" transform="translate(-140 -1871) translate(140 1871) translate(.5 .5)"><path d="M14 30v2c0 6.6 5.4 12 12 12s12-5.4 12-12"/><circle cx="38" cy="26" r="6"/><path d="M20 2h5.7c1.2 0 2.2 1.1 2 2.3l-3.2 22.3c-.3 2-2 3.4-4 3.4h-13c-2 0-3.7-1.5-4-3.4L.3 4.3C.2 3.1 1.1 2 2.3 2H8"/><path d="M8 0v4"/><path d="M20 0v4"/></g></g></svg>