<svg xmlns="http://www.w3.org/2000/svg" width="45" height="45" viewBox="0 0 45 45"><g fill="#444" class="nc-icon-wrapper"><title>motorcycle</title><g fill="none" fill-rule="evenodd" stroke="#444" stroke-width="1"><path d="M0 34h21.117a4 4 0 0 0 3.795-2.735l3.333-10C29.108 18.675 27.181 16 24.45 16H.827" transform="translate(-140 -1942) translate(140 1942) translate(.5 .5)"/><path d="M21.588.004C9.477.225 0 9.887 0 22v12c0 5.523 4.477 10 10 10h18c8.837 0 16-7.163 16-16v-6C44 9.713 33.927-.222 21.588.004z" transform="translate(-140 -1942) translate(140 1942) translate(.5 .5)"/></g></g></svg>