<svg xmlns="http://www.w3.org/2000/svg" width="25" height="43" viewBox="0 0 25 43"><g fill="#444" class="nc-icon-wrapper"><title>plant</title><g fill="none" fill-rule="evenodd" stroke="#444" stroke-width="1"><path d="M0 24C0 14.125 12 0 12 0s12 14.125 12 24c0 6.627-5.373 10-12 10S0 30.627 0 24z" transform="translate(-150 -2269) translate(150 2269) translate(.5 .5)"/><path d="M12 15v27" transform="translate(-150 -2269) translate(150 2269) translate(.5 .5)"/><path d="M2 42h20" transform="translate(-150 -2269) translate(150 2269) translate(.5 .5)"/><path d="M12 29l5-5" transform="translate(-150 -2269) translate(150 2269) translate(.5 .5)"/><path d="M7 19l5 5" transform="translate(-150 -2269) translate(150 2269) translate(.5 .5)"/></g></g></svg>