<svg xmlns="http://www.w3.org/2000/svg" width="52" height="37" viewBox="0 0 52 37"><g fill="#444" class="nc-icon-wrapper"><title>truck</title><g fill="none" fill-rule="evenodd" stroke="#444" stroke-width="1"><g transform="translate(-1108 -1350) translate(1108 1350) translate(.5 .5)"><path d="M39 10L39 18 45 18"/><path d="M37.1 30H20.9"/><path d="M11.1 30H7V18h26V4h7c2.2 0 11 12 11 12v14h-4.1"/><circle cx="16" cy="31" r="5"/><circle cx="42" cy="31" r="5"/><path d="M0 0H33V18H0z"/></g><path stroke-linecap="square" d="M2.5 3.5h28" transform="translate(-1108 -1350) translate(1108 1350)"/><path stroke-linecap="square" d="M2.5 6.5h28" transform="translate(-1108 -1350) translate(1108 1350)"/><path stroke-linecap="square" d="M2.5 9.5h28" transform="translate(-1108 -1350) translate(1108 1350)"/></g></g></svg>