<svg xmlns="http://www.w3.org/2000/svg" xmlns:xlink="http://www.w3.org/1999/xlink" width="247" height="248" version="1.1" viewBox="0 0 247 248"><title>push-notifications</title><desc>Created with Sketch.</desc><defs><linearGradient id="linearGradient-1" x1="50%" x2="50%" y1="0%" y2="89.467%"><stop offset="0%" stop-color="#192C3A"/><stop offset="100%" stop-color="#192C3A"/></linearGradient><rect id="path-2" width="122" height="34" x="0" y="0"/></defs><g id="Page-1" fill="none" fill-rule="evenodd" stroke="none" stroke-width="1"><g id="push-notifications" transform="translate(0.000000, 1.000000)"><g id="Onboarding"><g id="0.4---Allow-Push-Notifications"><g id="Group-7"><path id="Oval-2" fill="url(#linearGradient-1)" fill-rule="nonzero" d="M123.5,247 C191.707167,247 247,191.707167 247,123.5 C247,55.2928334 191.707167,1.42108547e-14 123.5,1.42108547e-14 C55.2928334,1.42108547e-14 1.42108547e-14,55.2928334 1.42108547e-14,123.5 C1.42108547e-14,191.707167 55.2928334,247 123.5,247 Z" opacity="0"/><g id="Phone" stroke="#707D89" stroke-width="2" transform="translate(62.000000, 0.000000)"><rect id="Combined-Shape" width="122.169" height="220.465" x="0" y="0" fill="#192C3A" fill-opacity=".65" fill-rule="nonzero" rx="8"/><path id="Line" stroke-linecap="square" d="M0.636298539,187 L121.533021,187"/><path id="Line" stroke-linecap="square" d="M50.2675846,203 L73.174332,203"/></g><ellipse id="Oval-2" cx="169" cy="57.488" fill="#192C3A" fill-opacity=".419" fill-rule="nonzero" stroke="#707D89" stroke-width="2" opacity=".946" rx="47" ry="44.488"/><g id="Group-3" transform="translate(62.000000, 33.000000)"><path id="Line" stroke="#fff" stroke-linecap="square" stroke-width="3" d="M12.7105489,19.5 L50.4911698,19.5"/><path id="Line" stroke="#fff" stroke-linecap="square" stroke-width="3" d="M21.96,10.4166666 L43.0026407,10.4166666"/><g id="Rectangle-3"><g id="path-2-Clipped"><mask id="mask-3" fill="#fff"><use xlink:href="#path-2"/></mask><rect id="path-2" width="122" height="34" x="0" y="0" stroke="#707D89" stroke-width="2" mask="url(#mask-3)"/></g></g></g><g id="android-notifications-none" fill="#FFF" fill-rule="nonzero" opacity=".9" transform="translate(144.642407, 28.000000)"><path id="Shape" d="M24.5218837,9.5815024 C25.5031747,9.5815024 27.8345547,10.1736779 27.8345547,10.1736779 C34.1505329,11.5548918 38.5961981,17.1067187 38.5961981,23.375 L38.5961981,38.5 L38.5961981,40.2467788 L39.8875454,41.4848077 L40.9665083,42.5190986 L7.80017568,42.5190986 L8.87913857,41.4848077 L10.1704859,40.2467788 L10.1704859,38.5 L10.1704859,23.375 C10.1704859,17.106851 14.616151,11.5548918 20.9321293,10.1736779 C20.9321293,10.1736779 23.4318375,9.5815024 24.2448003,9.5815024 L24.5218837,9.5815024 Z M24.383342,0 C21.9447307,0 20.0803748,1.78723558 20.0803748,4.125 L20.0803748,6.04986779 C11.9043355,7.83776442 5.73715099,14.9875 5.73715099,23.375 L5.73715099,38.5 L-6.82121026e-13,44 L-6.82121026e-13,46.75 L48.766684,46.75 L48.766684,44 L43.029533,38.5 L43.029533,23.375 C43.029533,14.9875 36.8622099,7.83776442 28.6863091,6.04986779 L28.6863091,4.125 C28.6863091,1.78723558 26.8219533,0 24.383342,0 L24.383342,0 L24.383342,0 Z M30.120493,49.5 L18.6460524,49.5 C18.6460524,52.5251322 21.2275002,55 24.383342,55 C27.5391837,55 30.120493,52.5251322 30.120493,49.5 L30.120493,49.5 L30.120493,49.5 Z"/></g></g></g></g></g></g></svg>