<svg xmlns="http://www.w3.org/2000/svg" xmlns:xlink="http://www.w3.org/1999/xlink" id="QR-scanner-guides" x="0" y="0" version="1.1" viewBox="0 0 271 236" xml:space="preserve" style="enable-background:new 0 0 271 236"><style type="text/css">.st0{filter:url(#filter-2)}.st1{fill:none;stroke:#647ce8;stroke-width:2}.st2{fill:#fff;fill-opacity:.3}</style><filter id="filter-2" width="200%" height="200%" x="-50%" y="-50%" filterUnits="objectBoundingBox"><feMorphology in="SourceAlpha" operator="dilate" radius="1" result="shadowSpreadOuter1"/><feOffset dx="0" dy="0" in="shadowSpreadOuter1" result="shadowOffsetOuter1"/><feMorphology in="SourceAlpha" operator="erode" radius="1" result="shadowInner"/><feOffset dx="0" dy="0" in="shadowInner" result="shadowInner"/><feComposite in="shadowOffsetOuter1" in2="shadowInner" operator="out" result="shadowOffsetOuter1"/><feGaussianBlur in="shadowOffsetOuter1" result="shadowBlurOuter1" stdDeviation="6"/><feColorMatrix in="shadowBlurOuter1" type="matrix" values="0 0 0 0 0.392156863 0 0 0 0 0.48627451 0 0 0 0 0.909803922 0 0 0 1 0"/></filter><g id="scan-line"><g class="st0"><line x1="11" x2="260" y1="111" y2="111"/></g><g><path id="line" d="M11,111h249" class="st1"/></g></g><path id="top-left" d="M28,10h53.1c2.8,0,5-2.2,5-5s-2.2-5-5-5H23c-2.8,0-5,2.2-5,5v58c0,2.8,2.2,5,5,5s5-2.2,5-5V10z" class="st2"/><path id="bottom-left" d="M28,224.7v-53.1c0-2.8-2.2-5-5-5s-5,2.2-5,5v58.1c0,2.8,2.2,5,5,5h58c2.8,0,5-2.2,5-5	c0-2.8-2.2-5-5-5H28z" class="st2"/><path id="top-right" d="M244,10v53.1c0,2.8,2.2,5,5,5s5-2.2,5-5V5c0-2.8-2.2-5-5-5h-58c-2.8,0-5,2.2-5,5s2.2,5,5,5H244z" class="st2"/><path id="bottom-right" d="M244.1,225.6H191c-2.8,0-5,2.2-5,5c0,2.8,2.2,5,5,5h58.1c2.8,0,5-2.2,5-5v-58	c0-2.8-2.2-5-5-5s-5,2.2-5,5V225.6z" class="st2"/></svg>