<svg xmlns="http://www.w3.org/2000/svg" xmlns:xlink="http://www.w3.org/1999/xlink" x="0" y="0" version="1.1" viewBox="0 0 17.9 16.4" xml:space="preserve" style="enable-background:new 0 0 17.9 16.4"><style type="text/css">.st0{fill:#cccbcb}.st1{fill:#e86c60}.st2{fill:#dcdcdc}.st3{fill:#eee}</style><path d="M8.9,12.6c-0.1,0-0.1,0-0.2-0.1L0.2,7.1C0.1,7.1,0,6.9,0,6.8c0-0.1,0.1-0.3,0.2-0.3L8.9,1l8.7,5.4	c0.1,0.1,0.2,0.2,0.2,0.3c0,0.1-0.1,0.3-0.2,0.3l-8.5,5.4C9.1,12.6,9,12.6,8.9,12.6z" class="st0"/><path d="M8.9,6.8L8.7,6.6C8.4,6.3,5.5,3.9,5.5,2.1c0-1.2,0.9-2.1,2-2.1c0.5,0,1,0.2,1.4,0.6C9.3,0.2,9.8,0,10.3,0	c1.1,0,2,0.9,2,2.1c0,1.8-2.9,4.2-3.2,4.5L8.9,6.8z" class="st1"/><path d="M17.5,16.4C17.4,16.4,17.4,16.4,17.5,16.4l-8.9-5l9.2-4.6V16c0,0.1-0.1,0.2-0.1,0.3	C17.6,16.3,17.6,16.4,17.5,16.4z" class="st2"/><path d="M17.5,16.4H0.4c-0.2,0-0.4-0.2-0.4-0.4V6.8l17.7,8.9c0.2,0.1,0.2,0.3,0.2,0.4C17.8,16.3,17.6,16.4,17.5,16.4z" class="st3"/></svg>