<svg xmlns="http://www.w3.org/2000/svg" xmlns:xlink="http://www.w3.org/1999/xlink" width="33" height="33" version="1.1" viewBox="0 0 33 33"><title>Group</title><desc>Created with Sketch.</desc><g id="Symbols" fill="none" fill-rule="evenodd" stroke="none" stroke-width="1"><g id="Icons/Transaction/Pending" transform="translate(-8.000000, -8.000000)"><g id="Icons/Send"><g id="icons/received"><g id="users-24px-outline-2_a-check" transform="translate(8.000000, 8.000000)"><g id="Group"><path id="Oval-204" fill="#FFF6EF" d="M16.5,33 C25.6126984,33 33,25.6126984 33,16.5 C33,7.38730163 25.6126984,0 16.5,0 C7.38730163,0 0,7.38730163 0,16.5 C0,25.6126984 7.38730163,33 16.5,33 Z"/><path id="Shape" stroke="#F6A623" d="M15.7275949,17.3034598 C13.3028473,17.3034598 11.1520001,17.8512604 9.73870884,18.3277955 C8.69548354,18.680689 8,19.6638107 8,20.7654223 L8,24.172433 L14.8689732,24.172433"/><path id="Shape" stroke="#F6A623" d="M15.7275949,17.3034598 L15.7275949,17.3034598 C13.3569405,17.3034598 11.4344866,14.5223843 11.4344866,12.1517299 L11.4344866,11.2931083 C11.4344866,8.92245388 13.3569405,7 15.7275949,7 L15.7275949,7 C18.0982492,7 20.0207031,8.92245388 20.0207031,11.2931083 L20.0207031,12.1517299 C20.0207031,14.5223843 18.0982492,17.3034598 15.7275949,17.3034598 L15.7275949,17.3034598 Z"/><polyline id="Shape" stroke="#F6A623" points="19.162 23.314 20.879 25.031 25.172 20.738"/></g></g></g></g></g></g></svg>