<svg xmlns="http://www.w3.org/2000/svg" xmlns:xlink="http://www.w3.org/1999/xlink" width="13" height="19" version="1.1" viewBox="0 0 13 19"><title>Group</title><desc>Created with Sketch.</desc><g id="WALLET-2-of-3" fill="none" fill-rule="evenodd" stroke="none" stroke-width="1"><g id="Home-with-funds-Copy-2" stroke="#7A8C9E" stroke-width=".72" transform="translate(-422.500000, -486.000000)"><g id="Group" transform="translate(423.200478, 486.643311)"><rect id="Rectangle-211" width="8.182" height="4.213" x="1.523" y="3.064" rx=".45"/><rect id="Rectangle-211-Copy" width="3.719" height="1.915" x="1.523" y="8.426" rx=".45"/><rect id="Rectangle-211-Copy-2" width="3.719" height="1.915" x="5.986" y="8.426" rx=".45"/><path id="Path-394" d="M0.0509390963,1.39143538 C0.0340028166,0.641805352 0.620430663,0.0341101408 1.36676058,0.0341101408 L9.83652646,0.0341101408 C10.5801709,0.0341101408 11.1830138,0.632240836 11.1830138,1.38260656 L11.1830138,11.1890193 C11.1830138,11.6897048 11.0143056,12.4532657 10.7966024,12.9148144 L8.87244571,16.9941839 C8.65903659,17.4466287 8.08116882,17.8134077 7.5844497,17.8134077 L4.00108536,17.8134077 C3.50315392,17.8134077 2.9236038,17.4414018 2.71441395,16.9989845 L0.672687401,12.6809204 C0.460009838,12.2311269 0.278706148,11.4728125 0.267067762,10.9576767 L0.0509390963,1.39143538 Z"/></g></g></g></svg>