<svg xmlns="http://www.w3.org/2000/svg" xmlns:xlink="http://www.w3.org/1999/xlink" width="51" height="58" version="1.1" viewBox="0 0 51 58"><title>games</title><desc>Created with Sketch.</desc><g id="Page-1" fill="none" fill-rule="evenodd" stroke="none" stroke-width="1"><g id="Wallet-Icons" fill="#FFF" fill-rule="nonzero" transform="translate(-431.000000, -99.000000)"><g id="games" transform="translate(455.000000, 127.000000) rotate(10.000000) translate(-455.000000, -127.000000) translate(430.000000, 100.000000)"><path id="Rectangle-Copy-25" d="M21.2765957,10.5882353 L46.8085106,10.5882353 C48.5711215,10.5882353 50,12.0103896 50,13.7647059 L50,50.1298174 C50,51.8841337 48.5711215,53.306288 46.8085106,53.306288 L21.2765957,53.306288 C19.5139848,53.306288 18.0851064,51.8841337 18.0851064,50.1298174 L18.0851064,13.7647059 C18.0851064,12.0103896 19.5139848,10.5882353 21.2765957,10.5882353 Z M21.2765957,13.7647059 L21.2765957,50.1298174 L46.8085106,50.1298174 L46.8085106,13.7647059 L21.2765957,13.7647059 Z"/><path id="Combined-Shape" d="M32.769929,7.59524172 L15.754868,8.33535199 L15.2086904,44.677406 L7.86690468,45.4490588 C6.11394954,45.6333018 4.54424302,44.3682966 4.36086704,42.6235907 L0.559677809,6.457691 C0.376301826,4.71298507 1.64869713,3.14926298 3.40165227,2.96501997 L28.7937007,0.296208147 C30.5466558,0.111965137 32.1163623,1.37697028 32.2997383,3.12167622 L32.769929,7.59524172 Z"/><polygon id="Rectangle" points="27.69 25.412 37.782 28.026 40.395 38.118 30.303 35.504" transform="translate(34.042553, 31.764706) rotate(-315.000000) translate(-34.042553, -31.764706)"/><polygon id="Rectangle-Copy-53" points="39.377 16.245 44.423 17.552 45.73 22.598 40.684 21.291" transform="translate(42.553191, 19.421620) rotate(-315.000000) translate(-42.553191, -19.421620)"/><polygon id="Rectangle-Copy-58" points="22.355 41.294 27.401 42.601 28.708 47.647 23.662 46.34" transform="translate(25.531915, 44.470588) rotate(-315.000000) translate(-25.531915, -44.470588)"/></g></g></g></svg>