<svg xmlns="http://www.w3.org/2000/svg" xmlns:xlink="http://www.w3.org/1999/xlink" width="61" height="61" version="1.1" viewBox="0 0 61 61"><title>Oval 145 Copy 5 + send</title><desc>Created with Sketch.</desc><defs><ellipse id="path-1" cx="26.25" cy="26.25" rx="26.25" ry="26.25"/></defs><g id="Page-1" fill="none" fill-rule="evenodd" stroke="none" stroke-width="1"><g id="Wallet-Multisign" transform="translate(-22.000000, -558.000000)"><g id="Oval-145-Copy-5-+-send" transform="translate(26.000000, 562.000000)"><g id="Oval-145-Copy-5" stroke="#A5B2BF"><use fill="#FFF" fill-rule="evenodd" stroke-width="1.091" xlink:href="#path-1"/><use fill="none" stroke-opacity=".15" stroke-width="4" xlink:href="#path-1"/></g><path id="send" fill="#A5B2BF" d="M28.2822266,38 C28.0869131,38 27.9526371,37.9064137 27.8793945,37.7192383 L27.8671875,37.7192383 L23.9243164,28.0756836 L14.2807617,24.1206055 C14.0935863,24.055501 14,23.921225 14,23.7177734 C14,23.52246 14.0895173,23.384115 14.2685547,23.3027344 L38.3774414,13.0366211 C38.4262698,13.0122069 38.4832354,13 38.5483398,13 C38.6785488,13 38.7863765,13.0427242 38.8718262,13.1281738 C38.9572758,13.2136235 39,13.3173822 39,13.4394531 C39,13.5045576 38.9877931,13.5655922 38.9633789,13.6225586 L28.6972656,37.7314453 C28.615885,37.9104827 28.47754,38 28.2822266,38 L28.2822266,38 Z M15.5991211,23.7055664 L24.168457,27.2089844 L36.6074219,14.7578125 L15.5991211,23.7055664 Z M28.2944336,36.3886719 L37.2421875,15.3925781 L24.7910156,27.831543 L28.2944336,36.3886719 Z"/></g></g></g></svg>