<svg xmlns="http://www.w3.org/2000/svg" xmlns:xlink="http://www.w3.org/1999/xlink" width="26" height="19" version="1.1" viewBox="0 0 26 19"><title>Group</title><desc>Created with Sketch.</desc><g id="WALLET-2-of-3" fill="none" fill-rule="evenodd" stroke="none" stroke-width="1"><g id="Home-with-funds-Copy-2" transform="translate(-387.500000, -486.000000)"><g id="Group" transform="translate(388.000000, 486.643311)"><path id="file" fill="#7A8C9E" d="M6.06124777e-16,8.10123119 L7.9519043,0 L23.8677979,1.99840144e-15 C24.1094983,1.99840144e-15 24.3169547,0.0861824487 24.4901733,0.258549932 C24.663392,0.430917415 24.75,0.644321573 24.75,0.89876881 L24.75,17.1012312 C24.75,17.3556784 24.663392,17.5690826 24.4901733,17.7414501 C24.3169547,17.9138176 24.1094983,18 23.8677979,18 L0.882202148,18 C0.640501721,18 0.4330453,17.9138176 0.25982666,17.7414501 C0.0866080206,17.5690826 3.94533176e-17,17.3556784 5.50337173e-17,17.1012312 L6.06124777e-16,8.10123119 L6.06124777e-16,8.10123119 Z M23.8677979,0.89876881 L8.27648002,0.709412114 L0.882202148,8.48632788 L0.882202148,17.1012312 L23.8677979,17.1012312 L23.8677979,0.89876881 L23.8677979,0.89876881 Z"/><rect id="Rectangle" width="11.25" height="12.375" x="10.878" y="2.6" stroke="#7A8C9E" stroke-width=".8" rx="1"/><path id="Line" stroke="#7A8C9E" stroke-linecap="square" d="M11.25,10.6875 L21.375,10.6875"/><path id="Line" stroke="#7A8C9E" stroke-linecap="square" d="M11.25,6.1875 L21.375,6.1875"/><path id="Line" stroke="#7A8C9E" stroke-linecap="square" d="M19.125,2.8125 L19.125,14.0625"/></g></g></g></svg>