<svg xmlns="http://www.w3.org/2000/svg" xmlns:xlink="http://www.w3.org/1999/xlink" width="33" height="33" version="1.1" viewBox="0 0 33 33"><title>Group 2</title><desc>Created with Sketch.</desc><g id="Symbols" fill="none" fill-rule="evenodd" stroke="none" stroke-width="1"><g id="Icons/Transaction/Processing" transform="translate(-8.000000, -8.000000)"><g id="Icons/Send"><g id="Group-2" transform="translate(8.000000, 8.000000)"><path id="Oval-204" fill="#F2F2F2" d="M16.5,33 C25.6126984,33 33,25.6126984 33,16.5 C33,7.38730163 25.6126984,0 16.5,0 C7.38730163,0 0,7.38730163 0,16.5 C0,25.6126984 7.38730163,33 16.5,33 Z" opacity=".8"/><g id="Group" stroke="#BDBDBD" transform="translate(8.000000, 7.500000)"><path id="Shape" d="M0,9 C0,4.05 3.80952381,0 8.46560847,0 C11.7671958,0 14.6455026,1.98 16,4.95"/><path id="Shape" d="M17,9 C17,13.95 13.1904762,18 8.53439153,18 C5.23280423,18 2.35449735,16.02 1,13.05"/><polyline id="Shape" points="17 0 16.294 5 11 4.322"/><polyline id="Shape" points="0 18 .706 13 6 13.678"/></g></g></g></g></g></svg>