<svg xmlns="http://www.w3.org/2000/svg" xmlns:xlink="http://www.w3.org/1999/xlink" width="51" height="51" version="1.1" viewBox="0 0 51 51"><title>item-ico-gift</title><desc>Created with Sketch.</desc><defs><linearGradient id="linearGradient-1" x1="0%" x2="102%" y1="0%" y2="101%"><stop offset="0%" stop-color="#3023AE"/><stop offset="100%" stop-color="#C96DD8"/></linearGradient><ellipse id="path-2" cx="25.16" cy="25.194" rx="25.16" ry="25.194"/></defs><g id="Symbols" fill="none" fill-rule="evenodd" stroke="none" stroke-width="1"><g id="Wallet/Icon/Gifts" transform="translate(-1.000000, -1.000000)"><g id="item-ico-gift" transform="translate(1.000000, 1.000000)"><g id="Group"><mask id="mask-3" fill="#fff"><use xlink:href="#path-2"/></mask><use id="Mask" fill="url(#linearGradient-1)" xlink:href="#path-2"/><polyline id="Shape" stroke="#FFF" points="34.909 22.364 34.909 37 16.091 37 16.091 22.364" mask="url(#mask-3)"/><rect id="Rectangle-path" width="23" height="4.182" x="14" y="18.182" stroke="#FFF" mask="url(#mask-3)"/><path id="Shape" stroke="#FFF" d="M19.2272727,16.0909091 C19.2272727,14.9356818 20.1629545,14 21.3181818,14 C24.4106364,14 25.5,18.1818182 25.5,18.1818182 L21.3181818,18.1818182 C20.1629545,18.1818182 19.2272727,17.2461364 19.2272727,16.0909091 L19.2272727,16.0909091 Z" mask="url(#mask-3)"/><path id="Shape" stroke="#FFF" d="M31.7727273,16.0909091 C31.7727273,14.9356818 30.8370455,14 29.6818182,14 C26.5893636,14 25.5,18.1818182 25.5,18.1818182 L29.6818182,18.1818182 C30.8370455,18.1818182 31.7727273,17.2461364 31.7727273,16.0909091 L31.7727273,16.0909091 Z" mask="url(#mask-3)"/><polyline id="Shape" stroke="#FFF" points="27.591 18.182 27.591 37 23.409 37 23.409 18.182" mask="url(#mask-3)"/></g></g></g></g></svg>