<svg xmlns="http://www.w3.org/2000/svg" xmlns:xlink="http://www.w3.org/1999/xlink" width="54" height="44" version="1.1" viewBox="0 0 54 44"><title>news</title><desc>Created with Sketch.</desc><defs><linearGradient id="linearGradient-1" x1="50%" x2="50%" y1="100%" y2="0%"><stop offset="0%" stop-color="#F5F2F2"/><stop offset="100%" stop-color="#F5F5F5"/></linearGradient></defs><g id="Page-1" fill="none" fill-rule="evenodd" stroke="none" stroke-width="1"><g id="Wallet-Icons" fill="#FFF" fill-rule="nonzero" transform="translate(-430.000000, -243.000000)"><g id="news" transform="translate(430.000000, 243.000000)"><path id="Combined-Shape" d="M6.75,44 L3,44 C1.34314575,44 2.02906125e-16,42.6568542 0,41 L0,7.39012536 L6.75,7.39012536 L6.75,0 L54,0 L54,38.8837209 C54,41.7093638 51.7191865,44 48.9056604,44 L6.75,44 Z M9.80660377,3.06976744 L9.80660377,40.9302326 L48.9056604,40.9302326 C50.0310708,40.9302326 50.9433962,40.0139781 50.9433962,38.8837209 L50.9433962,3.06976744 L9.80660377,3.06976744 Z"/><g id="Group" transform="translate(12.909668, 9.000000)"><rect id="Rectangle" width="18" height="13" x=".09" y="7"/><rect id="Rectangle-Copy" width="33" height="4" x=".09" y="0"/><rect id="Rectangle-Copy-9" width="33" height="3" x=".09" y="23"/><rect id="Rectangle-Copy-2" width="13" height="3" x="20.09" y="7"/><rect id="Rectangle-Copy-7" width="13" height="3" x="20.09" y="12"/><rect id="Rectangle-Copy-8" width="13" height="3" x="20.09" y="17"/></g></g></g></g></svg>