<svg xmlns="http://www.w3.org/2000/svg" xmlns:xlink="http://www.w3.org/1999/xlink" width="23" height="24" version="1.1" viewBox="0 0 23 24"><title>users-24px-outline_add-29</title><desc>Created with Sketch.</desc><g id="Symbols" fill="none" fill-rule="evenodd" stroke="none" stroke-width="1"><g id="Wallet/Icon/Join" stroke="#FFF" transform="translate(-13.000000, -13.000000)"><g id="users-24px-outline_add-29" transform="translate(14.000000, 14.000000)"><g id="Group"><path id="Shape" d="M11,12 L11,12 C8.2,12 6,9.8 6,7 L6,5 C6,2.2 8.2,0 11,0 L11,0 C13.8,0 16,2.2 16,5 L16,7 C16,9.8 13.8,12 11,12 L11,12 Z"/><path id="Shape" d="M11,16 L6,16 C2.7,16 0,18.7 0,22 L0,22 L22,22 L22,22"/><path id="Shape" d="M19,12 L19,18"/><path id="Shape" d="M16,15 L22,15"/></g></g></g></g></svg>