<svg xmlns="http://www.w3.org/2000/svg" xmlns:xlink="http://www.w3.org/1999/xlink" id="onboarding-market-illustration" x="0" y="0" version="1.1" viewBox="0 0 375 257" xml:space="preserve" style="enable-background:new 0 0 375 257"><style type="text/css">.st0,.st1{enable-background:new}.st0{opacity:.3;fill:url(#SVGID_1_)}.st1{fill:url(#SVGID_2_)}.st1,.st2{opacity:.3}.st3{fill:#13e5b6}.st4{opacity:.64;fill:none;stroke:#9012fe;stroke-width:2;stroke-linecap:square;enable-background:new}.st5{fill:#1a2a71;stroke:#fff;stroke-width:3}</style><linearGradient id="SVGID_1_" x1="-234.544" x2="-234.544" y1="11.693" y2="12.587" gradientTransform="matrix(247 0 0 247 58120 -2878.0242)" gradientUnits="userSpaceOnUse"><stop offset="0" style="stop-color:#3950b5"/><stop offset="1" style="stop-color:#162360"/></linearGradient><path d="M187.5,257c68.2,0,123.5-55.3,123.5-123.5S255.7,10,187.5,10S64,65.3,64,133.5S119.3,257,187.5,257z" class="st0"/><linearGradient id="SVGID_2_" x1="187.5" x2="187.5" y1="195.03" y2="45.031" gradientUnits="userSpaceOnUse"><stop offset="0" style="stop-color:#3950b5"/><stop offset="1" style="stop-color:#202f77"/></linearGradient><polygon points="54.3 137.3 97.7 107.8 140.1 129.9 184.6 90.7 222.9 90.7 247.7 57.5 280.8 77.2 321.2 66.1 375 45 375 195 150.1 195 .4 195 0 143.5" class="st1"/><g class="st2"><path d="M300.2,195h-0.5v-4h0.5V195z M300.2,187h-0.5v-4h0.5V187z M300.2,179h-0.5v-4h0.5V179z M300.2,171h-0.5v-4h0.5 V171z M300.2,163h-0.5v-4h0.5V163z M300.2,155h-0.5v-4h0.5V155z M300.2,147h-0.5v-4h0.5V147z M300.2,139h-0.5v-4h0.5V139z M300.2,131h-0.5v-4h0.5V131z M300.2,123h-0.5v-4h0.5V123z M300.2,115h-0.5v-4h0.5V115z M300.2,107h-0.5v-4h0.5V107z M300.2,99 h-0.5v-4h0.5V99z M300.2,91h-0.5v-4h0.5V91z M300.2,83h-0.5v-4h0.5V83z M300.2,75h-0.5v-4h0.5V75z" class="st3"/><path d="M225.2,195h-0.5v-4h0.5V195z M225.2,187h-0.5v-4h0.5V187z M225.2,179h-0.5v-4h0.5V179z M225.2,171h-0.5v-4h0.5 V171z M225.2,163h-0.5v-4h0.5V163z M225.2,155h-0.5v-4h0.5V155z M225.2,147h-0.5v-4h0.5V147z M225.2,139h-0.5v-4h0.5V139z M225.2,131h-0.5v-4h0.5V131z M225.2,123h-0.5v-4h0.5V123z M225.2,115h-0.5v-4h0.5V115z M225.2,107h-0.5v-4h0.5V107z M225.2,99 h-0.5v-4h0.5V99z M225.2,91h-0.5v-3.2h0.5V91z" class="st3"/><path d="M150.2,195h-0.5v-4h0.5V195z M150.2,187h-0.5v-4h0.5V187z M150.2,179h-0.5v-4h0.5V179z M150.2,171h-0.5v-4h0.5 V171z M150.2,163h-0.5v-4h0.5V163z M150.2,155h-0.5v-4h0.5V155z M150.2,147h-0.5v-4h0.5V147z M150.2,139h-0.5v-4h0.5V139z M150.2,131h-0.5v-4h0.5V131z M150.2,123h-0.5v-2h0.5V123z" class="st3"/><path d="M75.2,195h-0.5v-4h0.5V195z M75.2,187h-0.5v-4h0.5V187z M75.2,179h-0.5v-4h0.5V179z M75.2,171h-0.5v-4h0.5V171 z M75.2,163h-0.5v-4h0.5V163z M75.2,155h-0.5v-4h0.5V155z M75.2,147h-0.5v-4h0.5V147z M75.2,139h-0.5v-4h0.5V139z M75.2,131h-0.5 v-4h0.5V131z" class="st3"/></g><path d="M0,144.5c-0.5,0-0.9-0.4-1-0.9c-0.1-0.5,0.3-1,0.9-1.1l54.1-6.2L97.1,107c0.3-0.2,0.7-0.2,1-0.1l41.8,21.8	l44-38.7c0.2-0.2,0.4-0.2,0.7-0.2h37.8l24.5-32.8c0.3-0.4,0.9-0.5,1.3-0.3l32.7,19.5l39.9-11l53.8-21.1c0.5-0.2,1.1,0.1,1.3,0.6	c0.2,0.5-0.1,1.1-0.6,1.3l-53.8,21.1c0,0-0.1,0-0.1,0l-40.4,11.1c-0.3,0.1-0.5,0-0.8-0.1L248,58.9l-24.3,32.5	c-0.2,0.3-0.5,0.4-0.8,0.4H185l-44.2,39c-0.3,0.3-0.8,0.3-1.1,0.1L97.8,109l-42.9,29.2c-0.1,0.1-0.3,0.1-0.4,0.2l-54.3,6.2	C0.1,144.5,0,144.5,0,144.5z" class="st3"/><g><path id="Line_1_" d="M187.5,48.5v146" class="st4"/><circle id="dot" cx="187.5" cy="89.5" r="4.5" class="st5"/></g></svg>