<svg xmlns="http://www.w3.org/2000/svg" xmlns:xlink="http://www.w3.org/1999/xlink" width="247" height="247" version="1.1" viewBox="0 0 247 247"><title>bg-3</title><desc>Created with Sketch.</desc><defs><linearGradient id="linearGradient-1" x1="50%" x2="50%" y1="0%" y2="89.467%"><stop offset="0%" stop-color="#3950B5"/><stop offset="100%" stop-color="#162360"/></linearGradient></defs><g id="Onboarding" fill="none" fill-rule="evenodd" stroke="none" stroke-width="1"><g id="0.2.3---Tour-3" transform="translate(-64.000000, -210.000000)"><g id="bg-3" transform="translate(64.000000, 210.000000)"><path id="Oval-2" fill="url(#linearGradient-1)" d="M123.5,247 C191.707167,247 247,191.707167 247,123.5 C247,55.2928334 191.707167,1.42108547e-14 123.5,1.42108547e-14 C55.2928334,1.42108547e-14 1.42108547e-14,55.2928334 1.42108547e-14,123.5 C1.42108547e-14,191.707167 55.2928334,247 123.5,247 Z" opacity=".3"/><rect id="Combined-Shape" width="99.831" height="183.875" x="63" y="24" fill="#253377" stroke="#647CE8" stroke-width="2" rx="8"/><path id="Line" stroke="#647CE8" stroke-linecap="square" stroke-width="2" d="M63.5199532,180.634556 L162.311053,180.634556"/><path id="Line" stroke="#647CE8" stroke-linecap="square" stroke-width="2" d="M104.076299,194.254952 L122.794613,194.254952"/><g id="Group-4" stroke="#FFF" transform="translate(90.000000, 76.000000)"><g id="top-up"><g id="shopping-48px-outline_bitcoin" transform="translate(8.666667, 3.180606)"><g id="Group" transform="translate(0.619048, 0.627502)"><path id="Shape" d="M12.3809524,0 L12.3809524,7.5300202"/><path id="Shape" d="M17.3333333,0 L17.3333333,7.5300202"/><path id="Shape" d="M12.3809524,47.6901279 L12.3809524,55.2201481"/><path id="Shape" d="M17.3333333,47.6901279 L17.3333333,55.2201481"/><path id="Shape-Copy" d="M0,47.6901279 L7.42857143,47.6901279"/><path id="Shape-Copy-2" d="M0,7.5300202 L7.42857143,7.5300202"/><path id="Shape" d="M7.42857143,25.1000673 L7.42857143,7.5300202 L21.8042328,7.5300202 C26.9010582,7.5300202 30.952381,11.4205306 30.952381,16.3150438 C30.952381,21.2095569 26.9010582,25.1000673 21.8042328,25.1000673"/><path id="Shape" d="M7.42857143,47.6901279 L7.42857143,25.1000673 L23.6785714,25.1000673 C29.0952381,25.1000673 33.4285714,30.1200808 33.4285714,36.3950976 C33.4285714,42.6701145 29.0952381,47.6901279 23.6785714,47.6901279 L7.42857143,47.6901279 Z"/></g></g></g></g><g id="Group-3" stroke="#12E5B6" stroke-width="2" transform="translate(125.000000, 122.000000)"><rect id="Rectangle-path" width="74.76" height="65.721" x=".005" y="37.648" fill="#1F2F7B" rx="4"/><path id="Shape" d="M18.6954866,37.6483369 L18.6954866,18.8707664 C18.6954866,8.54310266 27.1059906,0.0931959432 37.3854955,0.0931959432 L37.3854955,0.0931959432 C47.6650004,0.0931959432 56.0755044,8.54310266 56.0755044,18.8707664 L56.0755044,37.6483369"/><path id="Shape" fill="#F9F9F9" d="M36.6300769,65.8146926 L36.6300769,75.2034779"/></g></g></g></g></svg>