<svg xmlns="http://www.w3.org/2000/svg" xmlns:xlink="http://www.w3.org/1999/xlink" id="Layer_1" x="0" y="0" version="1.1" viewBox="0 0 375 247" xml:space="preserve" style="enable-background:new 0 0 375 247"><style type="text/css">.st0{opacity:.15}.st1{fill:none;stroke:#fff;stroke-width:2}.st2{opacity:.3;fill:url(#SVGID_1_);enable-background:new}.st3,.st4{stroke:#6778ba;stroke-width:2}.st3{fill:#293881;fill-opacity:.6548}.st4{fill:none;stroke-linecap:square}.st5{fill:#5bc2a7}</style><g class="st0"><g transform="translate(0.000000, 54.000000)"><polyline id="Shape" points="13 123.7 0 123.7 0 90 13 90" class="st1"/><polyline id="Shape_1_" points="58.3 123.7 71.3 123.7 71.3 90 58.3 90" class="st1"/><rect id="Rectangle-path" width="45.4" height="82.5" x="13" y="41.2" class="st1"/><path id="Shape_2_" d="M25.9,56.2h3.2" class="st1"/><path id="Shape_3_" d="M42.1,56.2h3.2" class="st1"/><path id="Shape_4_" d="M25.9,71.2h3.2" class="st1"/><path id="Shape_5_" d="M42.1,71.2h3.2" class="st1"/><path id="Shape_6_" d="M25.9,86.2h3.2" class="st1"/><path id="Shape_7_" d="M42.1,86.2h3.2" class="st1"/><path id="Shape_8_" d="M25.9,101.2h3.2" class="st1"/><path id="Shape_9_" d="M42.1,101.2h3.2" class="st1"/><path id="Shape_10_" d="M35.7,123.7v-7.5" class="st1"/></g><g transform="translate(0.000000, 54.000000)"><polyline id="Shape_11_" points="142.8 67 142.8 37.5 132.6 37.5 132.6 19.7 112.2 19.7 112.2 37.5 102 37.5 102 84.8" class="st1"/><path id="Shape_12_" d="M112.2,138h20.4" class="st1"/><path id="Shape_13_" d="M122.4,7.9v11.8" class="st1"/><rect id="Rectangle-path_1_" width="40.9" height="53.2" x="71.3" y="84.8" class="st1"/><rect id="Rectangle-path_2_" width="40.9" height="71" x="132.6" y="67" class="st1"/><path id="Shape_14_" d="M147.9,84.8h10.2" class="st1"/><path id="Shape_15_" d="M147.9,102.5h10.2" class="st1"/><path id="Shape_16_" d="M147.9,120.2h10.2" class="st1"/><path id="Shape_17_" d="M86.6,102.5h10.2" class="st1"/><path id="Shape_18_" d="M86.6,120.2h10.2" class="st1"/></g><g transform="translate(0.000000, 54.000000)"><polyline id="Shape_19_" points="237.5 135.4 224.5 135.4 224.5 101.6 237.5 101.6" class="st1"/><polyline id="Shape_20_" points="282.9 135.4 295.8 135.4 295.8 101.6 282.9 101.6" class="st1"/><rect id="Rectangle-path_3_" width="45.4" height="82.5" x="237.5" y="52.9" class="st1"/><path id="Shape_21_" d="M250.5,67.9h3.2" class="st1"/><path id="Shape_22_" d="M266.7,67.9h3.2" class="st1"/><path id="Shape_23_" d="M250.5,82.9h3.2" class="st1"/><path id="Shape_24_" d="M266.7,82.9h3.2" class="st1"/><path id="Shape_25_" d="M250.5,97.9h3.2" class="st1"/><path id="Shape_26_" d="M266.7,97.9h3.2" class="st1"/><path id="Shape_27_" d="M250.5,112.9h3.2" class="st1"/><path id="Shape_28_" d="M266.7,112.9h3.2" class="st1"/><path id="Shape_29_" d="M260.2,135.4v-7.5" class="st1"/></g><g transform="translate(0.000000, 54.000000)"><polyline id="Shape_30_" points="367.4 56 367.4 26.4 357.1 26.4 357.1 8.7 336.7 8.7 336.7 26.4 326.5 26.4 326.5 73.8" class="st1"/><path id="Shape_31_" d="M336.7,127.1h20.4" class="st1"/><path id="Shape_32_" d="M346.9-3.1V8.7" class="st1"/><rect id="Rectangle-path_4_" width="40.9" height="53.2" x="295.8" y="73.8" class="st1"/><rect id="Rectangle-path_5_" width="40.9" height="71" x="357.1" y="56" class="st1"/><path id="Shape_33_" d="M372.5,73.8h10.2" class="st1"/><path id="Shape_34_" d="M372.5,91.5h10.2" class="st1"/><path id="Shape_35_" d="M372.5,109.2h10.2" class="st1"/><path id="Shape_36_" d="M311.2,91.5h10.2" class="st1"/><path id="Shape_37_" d="M311.2,109.2h10.2" class="st1"/></g></g><linearGradient id="SVGID_1_" x1="-234.544" x2="-234.544" y1="2.202" y2="2.955" gradientTransform="matrix(247 0 0 247 58120 -544)" gradientUnits="userSpaceOnUse"><stop offset="0" style="stop-color:#4054a5"/><stop offset="1" style="stop-color:#24285e"/></linearGradient><path d="M187.5,247c68.2,0,123.5-55.3,123.5-123.5S255.7,0,187.5,0S64,55.3,64,123.5S119.3,247,187.5,247z" class="st2"/><g><path d="M141,32h83.8c4.4,0,8,3.6,8,8v167.9c0,4.4-3.6,8-8,8H141c-4.4,0-8-3.6-8-8V40C133,35.6,136.6,32,141,32z" class="st3"/><path d="M133.5,188h98.8" class="st4"/><path d="M177.1,202.3h18.7" class="st4"/></g><g><path d="M197.8,66H166v31.8h31.8V66L197.8,66z M193.3,93.3h-22.7V70.5h22.7V93.3L193.3,93.3z" class="st5"/><polygon points="231.9 156.9 227.4 156.9 227.4 166 266 166 266 161.5 231.9 161.5" class="st5"/><rect width="13.6" height="13.6" x="175.1" y="75.1" class="st5"/><path d="M166,166h31.8v-31.8H166V166L166,166z M170.5,138.7h22.7v22.7h-22.7V138.7L170.5,138.7z" class="st5"/><rect width="13.6" height="13.6" x="175.1" y="143.3" class="st5"/><path d="M234.2,66v31.8H266V66H234.2L234.2,66z M261.5,93.3h-22.7V70.5h22.7V93.3L261.5,93.3z" class="st5"/><rect width="13.6" height="13.6" x="243.3" y="75.1" class="st5"/><rect width="9.1" height="9.1" x="256.9" y="102.4" class="st5"/><rect width="9.1" height="9.1" x="166" y="120.5" class="st5"/><polygon points="213.7 102.4 195.5 102.4 195.5 106.9 218.3 106.9 218.3 97.8 218.3 93.3 222.8 93.3 222.8 84.2 218.3 84.2 213.7 84.2 209.2 84.2 209.2 75.1 213.7 75.1 213.7 79.6 229.6 79.6 229.6 66 225.1 66 225.1 75.1 218.3 75.1 218.3 66 216 66 206.9 66 204.6 66 204.6 88.7 213.7 88.7 213.7 93.3 204.6 93.3 204.6 97.8 213.7 97.8" class="st5"/><polygon points="172.8 116 181.9 116 186.5 116 188.7 116 188.7 120.5 179.6 120.5 179.6 125.1 188.7 125.1 188.7 129.6 206.9 129.6 206.9 125.1 193.3 125.1 193.3 120.5 193.3 111.5 186.5 111.5 186.5 104.6 181.9 104.6 181.9 111.5 177.4 111.5 177.4 102.4 166 102.4 166 106.9 172.8 106.9" class="st5"/><polygon points="216 156.9 216 145.5 206.9 145.5 206.9 136.5 202.4 136.5 202.4 150.1 211.5 150.1 211.5 156.9 202.4 156.9 202.4 161.5 211.5 161.5 211.5 166 222.8 166 222.8 161.5 216 161.5" class="st5"/><polygon points="238.7 111.5 229.6 111.5 229.6 100.1 225.1 100.1 225.1 116 247.8 116 247.8 111.5 243.3 111.5 243.3 106.9 250.1 106.9 250.1 102.4 243.3 102.4 238.7 102.4 234.2 102.4 234.2 106.9 238.7 106.9" class="st5"/><polygon points="234.2 152.4 241 152.4 241 156.9 250.1 156.9 250.1 152.4 250.1 147.8 250.1 141 241 141 241 147.8 234.2 147.8 234.2 141 229.6 141 229.6 147.8 225.1 147.8 225.1 129.6 220.5 129.6 220.5 125.1 216 125.1 216 111.5 200.1 111.5 200.1 120.5 204.6 120.5 204.6 116 211.5 116 211.5 125.1 211.5 134.2 220.5 134.2 220.5 147.8 220.5 152.4 225.1 152.4 229.6 152.4" class="st5"/><polygon points="261.5 122.8 254.6 122.8 250.1 122.8 238.7 122.8 238.7 131.9 234.2 131.9 234.2 122.8 229.6 122.8 229.6 136.5 243.3 136.5 243.3 127.4 250.1 127.4 250.1 134.2 254.6 134.2 254.6 127.4 261.5 127.4 261.5 141 254.6 141 254.6 154.6 266 154.6 266 150.1 259.2 150.1 259.2 145.5 266 145.5 266 127.4 266 122.8 266 116 261.5 116" class="st5"/></g></svg>