<svg xmlns="http://www.w3.org/2000/svg" xmlns:xlink="http://www.w3.org/1999/xlink" id="Capa_1" x="0" y="0" enable-background="new -264 387.9 66 66" version="1.1" viewBox="-264 387.9 66 66" xml:space="preserve"><title>Oval 356 + ios7-redo Copy</title><desc>Created with Sketch.</desc><g id="Page-1"><g id="Copay-v1-Buy-_x2013_-Main" transform="translate(-18.000000, -847.000000)"><g id="Oval-356-_x2B_-ios7-redo-Copy" transform="translate(19.000000, 848.000000)"><path fill="#F6A623" d="M-232,452.9c-18.2,0-33-14.8-33-33c0-18.2,14.8-33,33-33s33,14.8,33,33C-199,438.1-213.8,452.9-232,452.9 z M-232,388.9c-17.1,0-31,13.9-31,31s13.9,31,31,31c17.1,0,31-13.9,31-31S-214.9,388.9-232,388.9z"/><g id="minus-round-copy" transform="translate(15.000000, 31.000000)"><path id="Shape" fill="#F6A623" d="M-232.7,387.9h-28.6c-1.5,0-2.7,1.1-2.7,2.4c0,1.3,1.2,2.4,2.7,2.4h28.6 c1.5,0,2.7-1.1,2.7-2.4C-230,389-231.2,387.9-232.7,387.9L-232.7,387.9z"/></g></g></g></g></svg>