<svg xmlns="http://www.w3.org/2000/svg" xmlns:xlink="http://www.w3.org/1999/xlink" id="Capa_1" x="0" y="0" enable-background="new -258 383.9 79 75" version="1.1" viewBox="-258 383.9 79 75" xml:space="preserve"><title>Oval 356 + ios7-redo Copy + Shape Copy 5</title><desc>Created with Sketch.</desc><g id="Page-1"><g id="Copay-v1-Buy-_x2013_-Main" transform="translate(-18.000000, -867.000000)"><g id="Oval-356-_x2B_-ios7-redo-Copy-_x2B_-Shape-Copy-5" transform="translate(19.000000, 868.000000)"><g id="Oval-356-_x2B_-ios7-redo-Copy"><g><circle id="Oval-356_1_" cx="-226" cy="415.9" r="32" fill="#FFF"/><path fill="#F6A623" d="M-226,448.9c-18.2,0-33-14.8-33-33c0-18.2,14.8-33,33-33s33,14.8,33,33 C-193,434.1-207.8,448.9-226,448.9z M-226,384.9c-17.1,0-31,13.9-31,31s13.9,31,31,31c17.1,0,31-13.9,31-31 S-208.9,384.9-226,384.9z"/></g><g id="minus-round-copy" transform="translate(15.000000, 31.000000)"><path id="Shape" fill="#F6A623" d="M-226.7,383.9h-28.6c-1.5,0-2.7,1.1-2.7,2.4c0,1.3,1.2,2.4,2.7,2.4h28.6 c1.5,0,2.7-1.1,2.7-2.4C-224,385-225.2,383.9-226.7,383.9L-226.7,383.9z"/></g></g><g id="Shape-Copy-5-_x2B_-Path-Copy-2" transform="translate(46.000000, 42.000000)"><g><path id="Shape-Copy-5_1_" fill="#2C3E50" d="M-258,398.9c0,8.3,6.7,15,15,15s15-6.7,15-15c0-8.3-6.7-15-15-15 S-258,390.6-258,398.9z"/><path fill="#FFF" d="M-243,414.9c-8.8,0-16-7.2-16-16s7.2-16,16-16s16,7.2,16,16S-234.2,414.9-243,414.9z M-243,384.9 c-7.7,0-14,6.3-14,14s6.3,14,14,14s14-6.3,14-14S-235.3,384.9-243,384.9z"/></g><path id="Path-Copy-2" fill="#FFF" d="M-234.3,394l-9.5,11.9c-0.1,0.1-0.2,0.2-0.3,0.2c-0.2,0-0.3-0.1-0.3-0.2 c-0.1-0.1-5.4-5-5.4-5l-0.1-0.1c0-0.1-0.1-0.1-0.1-0.2s0-0.2,0.1-0.2c0,0,0,0,0.1-0.1c0.5-0.5,1.6-1.6,1.7-1.7 c0.1-0.1,0.2-0.2,0.3-0.2c0.2,0,0.3,0.1,0.4,0.2c0.1,0.1,3.1,2.9,3.1,2.9l7.6-9.5c0.1-0.1,0.1-0.1,0.2-0.1c0.1,0,0.2,0,0.2,0.1 l2.1,1.6c0.1,0.1,0.1,0.1,0.1,0.2C-234.2,393.9-234.3,394-234.3,394L-234.3,394z"/></g></g></g></g></svg>