<svg xmlns="http://www.w3.org/2000/svg" xmlns:xlink="http://www.w3.org/1999/xlink" width="40" height="26" version="1.1" viewBox="0 0 40 26"><title>Group 2</title><desc>Created with Sketch.</desc><defs><path id="path-1" d="M5.1277704,-2.07168062e-16 L34.8722296,2.07168062e-16 C36.6552671,-1.2037061e-16 37.3018396,0.185651222 37.9536914,0.534265408 C38.6055433,0.882879593 39.1171204,1.39445674 39.4657346,2.04630859 C39.8143488,2.69816044 40,3.34473292 40,5.1277704 L40,20.5132552 C40,22.2962927 39.8143488,22.9428652 39.4657346,23.594717 C39.1171204,24.2465689 38.6055433,24.758146 37.9536914,25.1067602 C37.3018396,25.4553744 36.6552671,25.6410256 34.8722296,25.6410256 L5.1277704,25.6410256 C3.34473292,25.6410256 2.69816044,25.4553744 2.04630859,25.1067602 C1.39445674,24.758146 0.882879593,24.2465689 0.534265408,23.594717 C0.185651222,22.9428652 8.02470732e-17,22.2962927 -1.38112041e-16,20.5132552 L1.38112041e-16,5.1277704 C-8.02470732e-17,3.34473292 0.185651222,2.69816044 0.534265408,2.04630859 C0.882879593,1.39445674 1.39445674,0.882879593 2.04630859,0.534265408 C2.69816044,0.185651222 3.34473292,1.2037061e-16 5.1277704,-2.07168062e-16 Z"/></defs><g id="Page-1" fill="none" fill-rule="evenodd" stroke="none" stroke-width="1"><g id="Payment-method" transform="translate(-16.000000, -224.000000)"><g id="Credit-card" transform="translate(0.000000, 198.000000)"><g id="Group-2" transform="translate(16.000000, 26.000000)"><mask id="mask-2" fill="#fff"><use xlink:href="#path-1"/></mask><use id="Rectangle" fill="#5BC7FA" xlink:href="#path-1"/><polygon id="Rectangle-4" fill="#48B6FB" points="0 0 7.179 0 40.513 18.974 40 25.641 0 25.641" mask="url(#mask-2)"/><polygon id="Rectangle-4" fill="#3AA8FD" points="0 21.538 40 7.692 39.487 25.641 .513 25.641" mask="url(#mask-2)"/><g id="Group" fill="#FFF" mask="url(#mask-2)"><g transform="translate(10.256410, 12.307692)"><path id="a" d="M24.7895109,8.20512821 L24.549945,6.98659659 L21.950755,6.98659659 L21.5246746,8.20512821 L19.3939394,8.20512821 L22.4425658,0.611183383 C22.4425658,0.611183383 22.6277455,0 23.3868158,0 L25.0300778,0 L26.6666667,8.20512821 L24.7895109,8.20512821 Z M22.5399937,5.30296592 L24.2186234,5.30296592 L23.6140364,2.23170841 L22.5399937,5.30296592 Z"/><path id="s" d="M19.1044569,2.04782971 L19.3939394,0.345571263 C19.3939394,0.345571263 18.5010099,0 17.5706958,0 C16.5646199,0 14.1756448,0.447625934 14.1756448,2.62411863 C14.1756448,4.67228515 16.9798206,4.69788302 16.9798206,5.7726568 C16.9798206,6.84810421 14.4647964,6.65612018 13.6343952,5.97777658 L13.3333333,7.75716546 C13.3333333,7.75716546 14.238173,8.20512821 15.621734,8.20512821 C17.0046334,8.20512821 19.0922159,7.47558887 19.0922159,5.49141703 C19.0922159,3.43045157 16.2628964,3.23813072 16.2628964,2.34220523 C16.2628964,1.44594292 18.2373327,1.56113334 19.1044569,2.04782971"/><polyline id="i" points="11.934 8.205 9.697 8.205 11.095 0 13.333 0 11.934 8.205"/><path id="Combined-Shape" d="M0.00301615931,0.139398869 C0.00102492665,0.138971739 1.08745533e-05,0.138762685 0,0.138762685 L0.0393223848,0 L1.71957137,0 L3.39982035,0 C4.32476636,0 4.41106682,0.738789269 4.41106682,0.738789269 L5.12861334,4.42855182 C5.12861334,4.42855182 4.64630515,2.93179753 3.16493,1.73034976 C1.61569764,0.474163948 0.000347985706,0.138762685 0,0.138762685 L0.0393223848,0 L1.71957137,0 L3.39982035,0 C4.32476636,0 4.41106682,0.738789269 4.41106682,0.738789269 L5.12861334,4.42855182 L5.12861334,4.42820317 L5.36941945,5.64359693 L7.40200396,0 L9.6969697,0 L6.30445704,8.20512821 L4.08291629,8.20512821 L2.23093636,1.07663108 C1.06554311,0.375452428 0.0647443719,0.152639907 0.00301615931,0.139398869 C0.0010459995,0.138976269 8.78139884e-06,0.138762685 0,0.138762685 L0.0393223848,0 L3.39982035,0 C4.32476636,0 4.41106682,0.738789269 4.41106682,0.738789269 L5.12861334,4.42855182 C5.12861334,4.42855182 4.64630515,2.93179753 3.16493,1.73034976 C1.65479242,0.505863723 0.0818323889,0.156276705 0.00308463929,0.139412845 Z"/></g></g></g></g></g></g></svg>