<svg xmlns="http://www.w3.org/2000/svg" xmlns:svg="http://www.w3.org/2000/svg" id="Settings" width="24.682" height="24.174" x="0" y="0" version="1.1" viewBox="0 0 24.682 24.174" xml:space="preserve"><metadata id="metadata10"/><style id="style2" type="text/css"/><path id="path4491" d="m 9.1276802,0.48949999 a 3.4580598,3.4580598 0 0 1 0.00195,0.0761719 A 3.4580598,3.4580598 0 0 1 5.6179146,3.9660624 3.4580598,3.4580598 0 0 1 3.8952583,3.4719218 L 0.6784615,9.0441874 A 3.4580598,3.4580598 0 0 1 2.498774,12.143797 3.4580598,3.4580598 0 0 1 0.67650837,15.128172 l 3.20898433,5.554687 a 3.4580598,3.4580598 0 0 1 1.8222656,-0.484375 3.4580598,3.4580598 0 0 1 3.3984376,3.486328 h 6.4121091 a 3.4580598,3.4580598 0 0 1 -0.002,-0.07227 v -0.01172 a 3.4580598,3.4580598 0 0 1 3.517578,-3.394531 3.4580598,3.4580598 0 0 1 1.703125,0.484375 l 3.175781,-5.498047 a 3.4580598,3.4580598 0 0 1 -1.74414,-3.054688 v -0.01172 A 3.4580598,3.4580598 0 0 1 24.004633,9.1398906 L 20.737055,3.4816874 A 3.4580598,3.4580598 0 0 1 18.920649,3.9660624 3.4580598,3.4580598 0 0 1 15.516352,0.48949999 Z M 12.399165,7.0539531 a 5.0338984,5.0338984 0 0 1 4.947265,5.1152339 5.0338984,5.0338984 0 0 1 -5.111328,4.951172 5.0338984,5.0338984 0 0 1 -4.955078,-5.109375 v -0.01367 a 5.0338984,5.0338984 0 0 1 5.119141,-4.9433609 z" style="fill:#fab915;fill-opacity:1;stroke:#350000;stroke-width:.97899997;stroke-miterlimit:4;stroke-dasharray:none;stroke-opacity:1"/></svg>